<svg width="26" height="26" viewBox="0 0 26 26" fill="none" xmlns="http://www.w3.org/2000/svg">
<path d="M0 13C0 5.8203 5.8203 0 13 0C20.1797 0 26 5.8203 26 13C26 20.1797 20.1797 26 13 26C5.8203 26 0 20.1797 0 13Z" fill="#0077FF"/>
<path d="M4.97967 10.2105C4.94478 9.9079 4.90672 9.43721 4.89403 9.16519L4.875 8.66699H7.64413L7.65999 8.85649C7.66633 8.96347 7.68219 9.19881 7.69171 9.38525C7.70123 9.57169 7.73294 9.88651 7.75832 10.0882C7.7837 10.29 7.84714 10.6537 7.89789 10.8982C7.94864 11.1427 8.04697 11.5217 8.11358 11.7387C8.18336 11.9557 8.29121 12.2675 8.35782 12.4264C8.42126 12.5853 8.54814 12.8543 8.63696 13.0224C8.72894 13.1905 8.8812 13.4442 8.97953 13.5878C9.07469 13.7315 9.2428 13.9516 9.34748 14.0769C9.45215 14.2022 9.62978 14.3886 9.7408 14.4895C9.85499 14.5903 10.0453 14.7462 10.1658 14.8349C10.2896 14.9204 10.5148 15.058 10.6734 15.1374C10.8288 15.2139 11.0572 15.3117 11.1809 15.3514C11.3046 15.3911 11.4061 15.4217 11.4093 15.4217C11.4156 15.4217 11.4188 13.9027 11.4188 8.66699H14.0515V10.5925C14.0515 11.6501 14.061 12.5181 14.0737 12.5181C14.0896 12.5181 14.2355 12.4875 14.4004 12.4447C14.5654 12.405 14.8382 12.3103 15.0031 12.2308C15.168 12.1513 15.4377 11.9954 15.6026 11.8824C15.7675 11.7693 16.0403 11.5461 16.2084 11.3872C16.3734 11.2283 16.6049 10.9807 16.7223 10.8371C16.8365 10.6934 17.0078 10.4611 17.1061 10.3175C17.2013 10.1738 17.3504 9.92013 17.4392 9.75202C17.528 9.58392 17.6422 9.34246 17.6929 9.21715C17.7437 9.09184 17.8103 8.91456 17.8896 8.66699H20.5223L20.4747 8.85649C20.4462 8.96347 20.3954 9.15296 20.3606 9.27828C20.3257 9.40359 20.2464 9.63894 20.1829 9.79787C20.1227 9.9568 19.9799 10.2594 19.8689 10.4703C19.7579 10.6812 19.5707 10.996 19.4502 11.1733C19.3297 11.3505 19.1203 11.6317 18.9807 11.7998C18.8412 11.9679 18.5779 12.2491 18.3939 12.4264C18.2131 12.6037 17.9403 12.8421 17.7944 12.9552C17.6453 13.0713 17.4011 13.2455 17.2457 13.3464C17.0585 13.4686 16.9824 13.5359 17.0078 13.5512C17.03 13.5664 17.141 13.6215 17.2552 13.6765C17.3694 13.7345 17.62 13.8782 17.8103 14.0005C18.0006 14.1258 18.2797 14.3183 18.4288 14.4345C18.5747 14.5476 18.8444 14.786 19.0315 14.9632C19.2155 15.1436 19.4629 15.4034 19.5803 15.544C19.6976 15.6876 19.8943 15.9413 20.0116 16.1094C20.1322 16.2775 20.3003 16.5434 20.3923 16.6962C20.4811 16.8521 20.6175 17.115 20.6936 17.2769C20.7697 17.442 20.8744 17.6926 20.9283 17.8363C20.9791 17.9799 21.0457 18.1694 21.125 18.417H19.6818C18.3368 18.417 18.2385 18.4139 18.2195 18.362C18.2068 18.3345 18.1433 18.1725 18.0736 18.0044C18.007 17.8363 17.8642 17.5551 17.7595 17.3778C17.658 17.2005 17.4741 16.9316 17.3599 16.7818C17.2425 16.629 17.0173 16.3814 16.8587 16.2316C16.7001 16.0788 16.4337 15.8649 16.2687 15.7487C16.1069 15.6356 15.812 15.4706 15.6216 15.3789C15.4281 15.2872 15.1585 15.1772 15.019 15.1344C14.8794 15.0916 14.6669 15.0366 14.5432 15.0121L14.5382 15.0113C14.4152 14.99 14.2581 14.9628 14.0515 14.9327V18.417H13.5821C13.3251 18.417 12.9508 18.4017 12.751 18.3864C12.5512 18.3681 12.2086 18.3253 11.9897 18.2917C11.7709 18.2581 11.4283 18.1908 11.2285 18.1419C11.0286 18.093 10.7431 18.0135 10.5941 17.9646C10.445 17.9157 10.2134 17.8302 10.077 17.7782C9.94381 17.7262 9.71543 17.6254 9.56951 17.5581C9.42678 17.4878 9.18888 17.3625 9.0398 17.2769C8.89071 17.1914 8.60524 17.0019 8.4054 16.8552C8.20557 16.7084 7.89789 16.4548 7.72026 16.2897C7.5458 16.1216 7.30156 15.871 7.17785 15.7273C7.05414 15.5837 6.84797 15.3147 6.71791 15.1313C6.58786 14.9449 6.40072 14.6576 6.30239 14.4895C6.20723 14.3214 6.074 14.0738 6.01057 13.9393C5.94713 13.8048 5.83928 13.5634 5.77267 13.4045C5.70923 13.2455 5.59504 12.9429 5.52525 12.732C5.45547 12.5211 5.35397 12.1788 5.30004 11.9679C5.24612 11.757 5.16682 11.3994 5.12559 11.1733C5.08118 10.9471 5.01774 10.5131 4.97967 10.2105Z" fill="white"/>
</svg>
