<svg width="52" height="52" viewBox="0 0 52 52" fill="none" xmlns="http://www.w3.org/2000/svg">
<path d="M21.6667 47.6666H30.3333C41.1667 47.6666 45.5 43.3332 45.5 32.4999V19.4999C45.5 8.66658 41.1667 4.33325 30.3333 4.33325H21.6667C10.8333 4.33325 6.5 8.66658 6.5 19.4999V32.4999C6.5 43.3332 10.8333 47.6666 21.6667 47.6666Z" stroke="#FF5C39" stroke-width="2" stroke-linecap="round" stroke-linejoin="round"/>
<path d="M35.75 16.4233V18.59C35.75 20.3667 34.2983 21.84 32.5 21.84H19.5C17.7233 21.84 16.25 20.3883 16.25 18.59V16.4233C16.25 14.6467 17.7017 13.1733 19.5 13.1733H32.5C34.2983 13.1733 35.75 14.625 35.75 16.4233Z" stroke="#FF5C39" stroke-width="2" stroke-linecap="round" stroke-linejoin="round"/>
<path d="M17.6281 30.3333H17.6541M25.9892 30.3333H26.0152M34.3504 30.3333H34.3764M17.6281 37.9166H17.6541M25.9892 37.9166H26.0152M34.3504 37.9166H34.3764" stroke="#FF5C39" stroke-width="2" stroke-linecap="round" stroke-linejoin="round"/>
</svg>
