<svg width="52" height="52" viewBox="0 0 52 52" fill="none" xmlns="http://www.w3.org/2000/svg">
<path d="M15.1666 17.3333H8.66658C6.28325 17.3333 4.33325 15.3833 4.33325 12.9999V8.66659C4.33325 6.28325 6.28325 4.33325 8.66658 4.33325H15.1666C17.5499 4.33325 19.4999 6.28325 19.4999 8.66659V12.9999C19.4999 15.3833 17.5499 17.3333 15.1666 17.3333ZM45.0666 15.1666H37.2666C35.8366 15.1666 34.6666 13.9966 34.6666 12.5666V9.09992C34.6666 7.66992 35.8366 6.49992 37.2666 6.49992H45.0666C46.4966 6.49992 47.6666 7.66992 47.6666 9.09992V12.5666C47.6666 13.9966 46.4966 15.1666 45.0666 15.1666ZM45.0666 31.4166H37.2666C35.8366 31.4166 34.6666 30.2466 34.6666 28.8166V25.3499C34.6666 23.9199 35.8366 22.7499 37.2666 22.7499H45.0666C46.4966 22.7499 47.6666 23.9199 47.6666 25.3499V28.8166C47.6666 30.2466 46.4966 31.4166 45.0666 31.4166Z" stroke="#FF5C39" stroke-width="2" stroke-linecap="round" stroke-linejoin="round"/>
<path d="M19.5 10.8333H34.6667" stroke="#FF5C39" stroke-width="2" stroke-miterlimit="10" stroke-linecap="round" stroke-linejoin="round"/>
<path d="M27.0833 10.8333V38.9999C27.0833 41.3833 29.0333 43.3333 31.4166 43.3333H34.6666" fill="white"/>
<path d="M27.0833 10.8333V38.9999C27.0833 41.3833 29.0333 43.3333 31.4166 43.3333H34.6666M27.0833 27.0833H34.6666" stroke="#FF5C39" stroke-width="2" stroke-miterlimit="10" stroke-linecap="round" stroke-linejoin="round"/>
<path d="M45.0667 47.6667H37.2667C35.8367 47.6667 34.6667 46.4967 34.6667 45.0667V41.6C34.6667 40.17 35.8367 39 37.2667 39H45.0667C46.4967 39 47.6667 40.17 47.6667 41.6V45.0667C47.6667 46.4967 46.4967 47.6667 45.0667 47.6667Z" stroke="#FF5C39" stroke-width="2" stroke-linecap="round" stroke-linejoin="round"/>
</svg>
