<svg width="52" height="52" viewBox="0 0 52 52" fill="none" xmlns="http://www.w3.org/2000/svg">
<path d="M19.4999 47.6666H32.4999C43.3332 47.6666 47.6666 43.3332 47.6666 32.4999V19.4999C47.6666 8.66658 43.3332 4.33325 32.4999 4.33325H19.4999C8.66658 4.33325 4.33325 8.66658 4.33325 19.4999V32.4999C4.33325 43.3332 8.66658 47.6666 19.4999 47.6666Z" stroke="#FF5C39" stroke-width="2" stroke-linecap="round" stroke-linejoin="round"/>
<path d="M15.1667 17.875C17.3334 20.0417 20.8651 20.0417 23.0534 17.875M28.9467 17.875C31.1134 20.0417 34.6451 20.0417 36.8334 17.875M18.2001 28.1667H33.8001C34.8834 28.1667 35.7501 29.0333 35.7501 30.1167C35.7501 35.5117 31.3951 39.8667 26.0001 39.8667C20.6051 39.8667 16.2501 35.5117 16.2501 30.1167C16.2501 29.0333 17.1167 28.1667 18.2001 28.1667Z" stroke="#FF5C39" stroke-width="2" stroke-miterlimit="10" stroke-linecap="round" stroke-linejoin="round"/>
</svg>
